<svg width="183" height="185" viewBox="0 0 183 185" fill="none" xmlns="http://www.w3.org/2000/svg">
<path d="M17.929 161.259C17.929 163.397 17.3077 165.073 16.0649 166.285C14.8217 167.496 13.118 168.102 10.9538 168.102H2.32422L2.3462 178.217L0 178.255V154.475L11.6042 154.434C13.6012 154.434 15.1511 155.04 16.2548 156.251C17.3715 157.463 17.93 159.139 17.9304 161.277M15.5629 161.364C15.5629 158.028 13.999 156.359 10.8709 156.359L2.32494 156.322V166.223H10.4313C13.8527 166.223 15.5629 164.598 15.5629 161.348M34.9149 170.433C34.9149 172.971 34.2655 174.953 32.9665 176.378C31.514 177.975 29.3987 178.774 26.6197 178.774C25.2933 178.774 24.1341 178.59 23.1428 178.218C22.1655 177.833 21.3065 177.234 20.5663 176.421C19.2258 174.896 18.5552 172.9 18.5552 170.433C18.5552 167.953 19.2046 165.986 20.5033 164.532C21.9418 162.906 23.9802 162.094 26.6197 162.094C29.4124 162.094 31.5212 162.885 32.9456 164.467C34.2587 165.894 34.9149 167.882 34.9149 170.433ZM32.8829 170.433C32.8829 166 30.7951 163.784 26.6201 163.784C24.7348 163.784 23.2548 164.375 22.1796 165.558C21.6628 166.129 21.265 166.827 20.9858 167.653C20.7205 168.466 20.5879 169.393 20.5879 170.433C20.5879 172.472 21.1047 174.097 22.1374 175.309C23.1849 176.508 24.6793 177.106 26.6205 177.106C28.7706 177.106 30.3699 176.486 31.417 175.246C31.9201 174.689 32.2901 174.012 32.5272 173.214C32.7643 172.415 32.8829 171.489 32.8829 170.433ZM51.3019 173.919C51.3019 177.127 48.9489 178.731 44.2428 178.731C42.8046 178.731 41.5896 178.617 40.5982 178.389C39.6206 178.16 38.825 177.79 38.2106 177.278C37.7357 176.892 37.3587 176.387 37.0795 175.759C36.8006 175.117 36.619 174.325 36.535 173.385L38.7133 173.347C38.7133 174.602 39.0974 175.529 39.8649 176.128C40.6894 176.841 42.1484 177.197 44.2428 177.197C47.5385 177.197 49.1863 176.192 49.1863 174.181C49.1863 173.013 48.635 172.207 47.5316 171.765C47.3079 171.664 45.9746 171.439 43.5307 171.081C41.1006 170.71 39.5857 170.383 38.9853 170.097C37.6867 169.47 37.0373 168.337 37.0373 166.698C37.0373 165.1 37.6168 163.911 38.776 163.127C39.3486 162.8 40.0602 162.549 40.9121 162.378C41.778 162.195 42.7762 162.101 43.9076 162.101C48.4321 162.101 50.694 163.833 50.694 167.297H48.6202C48.6202 164.859 47.0282 163.641 43.8446 163.641C42.2245 163.641 41.017 163.893 40.221 164.389C39.425 164.874 39.0271 165.63 39.0271 166.656C39.0271 167.611 39.5648 168.295 40.64 168.708C41.2685 168.937 42.7138 169.193 44.9761 169.478C47.0009 169.707 48.3903 170.02 49.1442 170.42C50.5827 171.103 51.3019 172.266 51.3019 173.905M60.8024 178.282C60.4673 178.354 60.1668 178.403 59.9016 178.433C59.6504 178.47 59.4688 178.473 59.3574 178.473C57.933 178.473 56.906 178.222 56.2783 177.726C55.6498 177.212 55.3356 176.321 55.3356 175.052V164.252H52.7383V162.649H55.3147L55.3371 157.495H57.3269V162.671L60.8039 162.632V164.258L57.3269 164.22V174.72C57.3269 175.504 57.4944 176.046 57.8296 176.345C58.1791 176.645 58.7935 176.794 59.6731 176.794C59.7989 176.794 59.9387 176.794 60.0922 176.756C60.246 176.718 60.4763 176.677 60.7833 176.607L60.8049 178.231M77.0893 177.748C77.0893 182.479 74.4851 184.847 69.2759 184.847C66.5532 184.847 64.6192 184.391 63.474 183.478C62.4827 182.694 61.8752 181.432 61.6514 179.693L63.7043 179.655C63.9417 180.923 64.3745 181.808 65.003 182.306C65.8408 182.976 67.2443 183.312 69.2132 183.312C71.3079 183.312 72.8091 182.826 73.7168 181.857C74.6386 180.888 75.0995 179.512 75.0995 177.73L75.0771 174.95C73.8202 176.96 71.6909 177.965 68.6882 177.965C66.1892 177.965 64.2545 177.267 62.8863 175.869C62.2578 175.185 61.7764 174.358 61.4413 173.388C61.1199 172.404 60.9595 171.285 60.9595 170.031C60.9595 167.522 61.6089 165.605 62.9076 164.279C64.2765 162.825 66.2591 162.096 68.8561 162.096C70.6297 162.096 72.0751 162.474 73.1921 163.23C73.5691 163.514 74.1975 164.206 75.0771 165.305L75.0995 162.61H77.0893V177.73M75.0995 169.946C75.0995 168.079 74.5892 166.589 73.5705 165.478C72.5651 164.351 71.0849 163.788 69.1296 163.788C67.1892 163.788 65.6804 164.344 64.6055 165.456C63.5443 166.554 63.0139 168.079 63.0139 170.032C63.0139 174.238 65.101 176.34 69.2766 176.34C70.1847 176.34 70.9876 176.197 71.6855 175.912C72.3839 175.628 73.0051 175.207 73.55 174.649C74.5824 173.553 75.0995 171.985 75.0995 169.946ZM88.6762 164.232C88.0755 164.119 87.5173 164.06 87.0009 164.06C83.7193 164.06 82.0782 166.247 82.0782 170.625L82.1002 178.216H80.1104L80.0881 162.67L82.0779 162.632V165.433H82.1827C82.5179 164.336 83.0487 163.509 83.7747 162.953C84.5708 162.411 85.7577 162.14 87.3357 162.14C87.6567 162.14 87.922 162.14 88.1313 162.14C88.3555 162.14 88.5364 162.14 88.6762 162.178V164.231M105.075 170.861H90.8519C90.8519 172.644 91.3337 174.097 92.2976 175.224C93.4147 176.536 95.0135 177.191 97.0945 177.191C100.042 177.191 101.884 175.845 102.624 173.15H104.782C104.461 174.69 103.7 175.987 102.499 177.042C101.815 177.599 101.011 178.026 100.089 178.325C99.1813 178.64 98.1896 178.795 97.1151 178.795C94.4197 178.795 92.3322 177.969 90.8516 176.316C89.4837 174.832 88.799 172.828 88.799 170.306C88.799 167.797 89.5114 165.815 90.9359 164.361C92.3596 162.893 94.3642 162.159 96.9468 162.159C98.3302 162.159 99.5373 162.366 100.572 162.779C101.604 163.179 102.472 163.799 103.169 164.64C104.439 166.15 105.075 168.224 105.075 170.861ZM102.98 169.45C102.98 167.953 102.414 166.613 101.283 165.429C100.166 164.246 98.7211 163.654 96.9468 163.654C96.0395 163.654 95.2225 163.798 94.4968 164.082C93.7704 164.352 93.1214 164.774 92.5484 165.344C91.6688 166.314 91.1034 167.683 90.8519 169.45H102.98ZM131.125 171.92C131.125 177.502 127.443 180.294 120.081 180.294C115.669 180.294 112.447 179.336 110.419 177.417C108.759 175.842 107.928 173.444 107.928 170.225H110.898C110.898 175.414 113.959 178.008 120.081 178.008C123.016 178.008 125.138 177.468 126.446 176.39C127.552 175.465 128.106 174.001 128.106 171.998C128.106 170.012 127.352 168.617 125.842 167.811C124.986 167.383 122.898 166.843 119.577 166.193C115.4 165.423 112.691 164.644 111.45 163.856C109.655 162.709 108.757 160.773 108.757 158.051C108.757 155.483 109.521 153.582 111.047 152.349C112.691 150.979 115.509 150.293 119.5 150.293C126.714 150.293 130.32 153.213 130.32 159.053H127.326C127.326 154.686 124.65 152.503 119.3 152.503C116.616 152.503 114.653 152.94 113.412 153.813C112.237 154.755 111.65 156.134 111.65 157.948C111.65 159.85 112.406 161.192 113.914 161.981C114.719 162.427 117.085 163.044 121.01 163.83C124.699 164.515 127.191 165.303 128.482 166.193C130.245 167.305 131.125 169.214 131.125 171.92ZM160.527 180.217L158.715 182.22L154.338 178.495C153.415 179.095 152.291 179.548 150.966 179.856C149.642 180.164 148.09 180.318 146.312 180.318C141.767 180.318 138.177 178.94 135.543 176.183C132.926 173.409 131.617 169.77 131.617 165.266C131.617 160.66 132.917 157.004 135.517 154.298C138.117 151.593 141.698 150.24 146.261 150.24C148.609 150.24 150.697 150.6 152.526 151.319C154.354 152.038 155.914 153.135 157.205 154.607C159.621 157.279 160.829 160.832 160.829 165.268C160.829 167.75 160.459 169.942 159.722 171.843C158.983 173.727 157.843 175.329 156.3 176.647L160.527 180.217ZM157.986 165.267C157.986 163.315 157.725 161.577 157.206 160.053C156.686 158.512 155.88 157.167 154.79 156.02C152.727 153.673 149.892 152.501 146.286 152.501C142.73 152.501 139.87 153.622 137.706 155.866C135.558 158.11 134.485 161.242 134.485 165.267C134.485 169.138 135.566 172.237 137.73 174.566C139.911 176.877 142.762 178.034 146.285 178.034C148.012 178.034 149.573 177.759 150.965 177.212C152.356 176.664 153.606 175.851 154.713 174.771C156.894 172.443 157.984 169.275 157.984 165.267M182.975 179.549L162.72 179.587V151.023L165.513 150.971V177.171H183L182.974 179.559M72.6906 43.9249C73.0484 44.1578 73.4541 44.3351 73.8901 44.3966C75.4288 44.6158 76.7462 43.3393 76.8295 42.7282C76.9131 42.1161 75.7322 41.4421 74.1903 41.2229C72.6506 41.004 71.3328 41.3226 71.2513 41.9336H71.251C71.1904 42.3725 71.7832 43.3345 72.6906 43.9249ZM71.7418 42.9258C71.4693 42.5575 71.309 42.1838 71.327 41.9645L71.3299 41.9446C71.3857 41.5267 72.1717 41.2346 73.2419 41.2346C73.5449 41.2346 73.8606 41.2578 74.1799 41.3034C74.9157 41.4079 75.5913 41.6194 76.0814 41.899C76.5426 42.1621 76.7866 42.4604 76.7516 42.7172C76.6857 43.1998 75.6425 44.3414 74.244 44.3414C74.1298 44.3414 74.0145 44.3333 73.9013 44.3175C73.5038 44.2612 73.1341 44.103 72.8037 43.8984C72.7356 43.8561 72.6678 43.8138 72.6033 43.7678C72.2484 43.514 71.9518 43.2105 71.7418 42.9258ZM146.519 78.6645C146.268 77.8887 145.139 75.4213 141.185 76.2549C134.923 77.5741 131.238 77.4432 129.086 76.9366C142.969 53.4107 150.249 23.2637 143.584 14.5685C136.505 5.33217 126.109 0.377937 113.52 0.241086C104.228 0.142494 96.9068 2.6735 96.0402 3.0778C93.0252 2.30379 89.7359 1.82849 86.1516 1.76779C80.1875 1.67067 74.9737 3.00239 70.5692 5.72543C67.8742 4.83112 63.6473 3.60571 58.76 2.82434C47.4675 1.01805 38.532 2.4399 32.2015 7.04722C24.7755 12.4532 21.3461 22.0424 22.0077 35.5498C22.2289 40.0673 24.9171 54.1961 29.1991 67.9254C34.7502 85.7238 40.6656 95.804 46.7814 97.887C47.4862 98.1261 48.2992 98.2946 49.1946 98.2946C51.2522 98.2942 53.744 97.4032 56.3468 94.4576C56.6848 96.3139 59.2151 97.2391 62.0218 98.0878C62.0788 98.1051 62.1364 98.1195 62.1951 98.1301C62.9108 98.2629 63.6117 98.4053 64.3003 98.5455C66.7124 99.034 68.9905 99.4961 71.3158 99.4961H71.3166C74.2829 99.4961 76.8846 98.7224 79.3703 97.0666C79.3861 109.072 80.3054 119.275 81.8065 123.107C82.4563 124.765 85.8716 131.988 95.9724 131.987C97.6289 131.987 99.4634 131.793 101.496 131.349C111.753 129.104 116.367 124.569 117.954 115.171C118.881 109.687 120.098 99.4199 120.628 94.0345C122.002 94.3829 123.67 94.544 125.453 94.544C129.785 94.5433 134.802 93.5986 137.949 92.1068C143.392 89.5247 147.799 82.6155 146.519 78.6645ZM135.343 88.896C132.107 90.4286 127.73 91.147 123.991 91.147C121.673 91.147 119.601 90.8708 118.196 90.341C117.557 96.4493 116.079 108.665 115.229 113.699C113.696 122.774 109.917 126.699 100.787 128.698C99.2624 129.031 97.8772 129.181 96.6178 129.181C93.5769 129.181 91.2735 128.307 89.515 127.055C87.6016 126.059 85.912 124.436 84.8972 121.845C84.6882 121.312 84.4832 120.561 84.2868 119.621C84.2569 119.545 84.227 119.469 84.1992 119.397C82.7964 115.817 82.3348 103.369 82.4573 91.4377C79.2571 94.7331 75.1286 96.4603 70.358 96.4603C68.5192 96.4603 66.5834 96.2039 64.6044 95.6981C63.661 95.4582 62.4142 94.9895 61.3649 94.3082C61.1952 94.2177 61.1375 94.1515 60.9765 94.0378C59.997 93.3102 59.2724 92.3743 59.2955 91.2328C59.3452 88.7963 62.5166 87.8486 64.897 87.3472C70.6798 86.1317 71.104 85.5825 72.8877 83.2704C73.2657 82.78 73.7139 82.1998 74.2689 81.534C74.2429 81.2879 74.2238 81.0407 74.2184 80.7905C71.5201 80.7846 68.8756 80.0573 66.4977 78.6943C65.1792 80.1213 60.8475 84.8662 56.1925 90.5835C54.5306 92.623 52.9192 93.7262 51.4493 94.2538C49.6465 95.2791 48.3687 94.8453 47.835 94.6636C47.5179 94.5554 47.2023 94.4105 46.887 94.2409C34.0573 89.5607 25.1272 44.5294 24.7197 36.2028C24.0984 23.5257 27.2835 14.5663 34.1859 9.57382C39.9003 5.44033 48.2732 4.13583 58.3996 5.80122C64.5954 6.81987 69.6143 8.62248 71.332 9.2854C75.6684 6.20625 80.9266 4.69206 87.0352 4.79948C90.3161 4.85429 93.3307 5.28287 96.0971 5.98184V5.838C96.3724 5.8884 96.647 5.93843 96.9169 5.99325C98.6455 5.35829 104.672 3.55715 112.193 3.55715C114.286 3.55715 116.592 3.70393 119.006 4.09793C126.554 5.16 134.703 8.49704 140.964 16.6629C141.804 17.7599 142.344 19.5194 142.588 21.8047C143.472 26.7119 142.821 33.9039 140.634 42.5498C137.563 54.6928 131.874 67.7069 124.954 78.4817C124.954 78.4817 124.851 78.6623 124.745 78.8308C125.947 79.8664 129.659 81.0499 138.444 79.1983C141.226 78.6115 142.883 79.0799 143.372 80.5878C144.299 83.451 139.078 87.1246 135.343 88.896ZM120.663 78.588C118.671 79.1913 115.302 80.6235 115.63 87.2192C115.61 87.473 115.582 87.799 115.547 88.1749C115.546 88.1852 115.544 88.1977 115.543 88.2081C115.527 88.3806 115.509 88.5645 115.49 88.7599C115.489 88.7661 115.489 88.7724 115.488 88.779C114.956 94.1732 113.326 107.824 112.417 113.204C111.094 121.04 108.122 124.113 100.188 125.85C91.7758 127.69 88.8066 123.314 86.8474 118.315C85.6078 115.15 84.9952 101.014 85.4222 85.432C85.4269 85.2496 85.3952 85.0763 85.3397 84.9137C85.294 84.5683 85.2309 84.2191 85.1318 83.8663C84.5405 81.7577 83.0512 79.926 81.3367 79.2002C80.7871 78.9677 79.9555 78.6163 78.9584 78.6163C78.3649 78.6163 77.7934 78.7418 77.2374 78.9816C77.5437 77.3232 78.2359 75.422 78.9987 73.3343L79.2722 72.5846C79.5847 71.7274 79.9728 70.8471 80.3839 69.9145C82.5654 64.9669 85.5527 58.1909 82.3038 42.8533C81.5024 39.0715 79.4207 36.6104 76.2904 35.6189C76.1877 35.5866 76.0818 35.5583 75.9769 35.5288C75.8144 35.4832 75.6501 35.4416 75.4825 35.4037C75.3751 35.3795 75.2677 35.3555 75.1586 35.3342C74.9416 35.293 74.7211 35.2577 74.4966 35.2286C74.4368 35.2209 74.3795 35.2095 74.3197 35.2029C74.0372 35.1705 73.7471 35.1503 73.4516 35.1374C73.3554 35.133 73.257 35.1322 73.1597 35.1297C72.9356 35.1249 72.7086 35.1249 72.4772 35.1308C72.3803 35.1334 72.2834 35.1348 72.1853 35.1392C71.8632 35.1539 71.5371 35.1749 71.2023 35.2106C67.5423 35.5976 64.1868 37.1092 62.5123 37.9756C61.8719 38.307 61.3278 38.6175 60.8529 38.9104C60.864 38.7437 60.8763 38.5719 60.8896 38.3957C60.9019 38.2305 60.9163 38.0595 60.9311 37.8862C60.9314 37.8807 60.9318 37.8748 60.9325 37.8696C60.9631 37.5073 60.9995 37.1258 61.041 36.7292C61.0413 36.7263 61.0417 36.7233 61.042 36.7207C61.6845 30.6117 63.6999 20.7084 69.9898 14.2231C74.293 9.78609 80.0138 7.60419 86.9883 7.71235C109.223 8.08428 119.114 26.6298 121.626 33.6615C121.628 33.667 121.63 33.6714 121.632 33.6769C121.7 33.8689 121.763 34.0525 121.821 34.2273C121.823 34.2339 121.825 34.2398 121.826 34.2468C121.885 34.4226 121.938 34.5907 121.985 34.7467C121.567 34.6967 121.159 34.6555 120.757 34.6209C120.616 34.6084 120.479 34.601 120.34 34.5907C120.086 34.5716 119.832 34.5528 119.583 34.5403C119.415 34.5315 119.25 34.5275 119.085 34.5219C118.875 34.5142 118.667 34.5072 118.462 34.505C118.282 34.5024 118.107 34.5039 117.932 34.505C117.751 34.5061 117.57 34.5083 117.393 34.5135C117.208 34.5186 117.026 34.5267 116.846 34.5363C116.689 34.5444 116.535 34.5539 116.382 34.5653C116.191 34.5797 116.003 34.5959 115.818 34.6146C115.688 34.6279 115.56 34.6433 115.432 34.6592C115.235 34.6834 115.039 34.7088 114.847 34.7386C114.747 34.7544 114.651 34.7728 114.553 34.7897C114.342 34.8269 114.132 34.8648 113.929 34.9089C113.877 34.92 113.828 34.9332 113.777 34.9454C112.163 35.3154 110.8 35.9144 109.698 36.7465C109.512 36.887 109.334 37.0342 109.162 37.1876C109.158 37.1913 109.155 37.1946 109.151 37.1979C108.979 37.3513 108.817 37.511 108.661 37.6776C108.384 37.9715 108.125 38.2798 107.896 38.6146C102.912 45.8894 110.766 60.268 114.54 67.1782C115.246 68.4702 115.855 69.5856 116.054 70.0782C117.275 73.0974 118.861 75.1222 120.021 76.6011C120.554 77.2824 121.035 77.8964 121.313 78.3997C121.233 78.4225 121.156 78.4449 121.086 78.4659C120.955 78.5034 120.812 78.5442 120.664 78.5891C120.663 78.588 120.663 78.588 120.663 78.588ZM139.021 82.0512C139.573 81.935 139.982 81.8838 140.28 81.8665C139.467 82.9205 137.314 84.7504 134.141 86.2539C130.157 88.1418 122.363 88.8728 119.251 87.6503C118.604 87.3961 118.484 87.1714 118.483 87.1714C118.212 82.3139 120.147 81.7591 121.855 81.2695C122.106 81.1977 122.452 81.0984 122.808 80.9435C123.001 81.119 123.223 81.2945 123.477 81.4656C126.375 83.4175 131.604 83.6147 139.021 82.0512ZM76.3253 72.3153L76.597 71.57C76.943 70.6201 77.3498 69.6964 77.7819 68.7182C79.9129 63.8846 82.5651 57.8687 79.5148 43.4684C78.8791 40.4694 77.3152 38.7507 74.7312 38.2147C74.582 38.1838 74.4314 38.1581 74.2797 38.1356C74.1359 38.1135 73.9903 38.097 73.844 38.0819C73.8408 38.0815 73.8379 38.0808 73.8346 38.0808C68.5596 37.5426 61.9548 41.3255 60.7523 42.5605C60.7642 42.9011 60.7916 43.368 60.8233 43.9172C61.0103 47.1321 61.3577 53.1153 60.4179 59.977C59.7253 65.0316 61.2388 69.966 64.5702 73.5149C66.9658 76.0669 70.0528 77.5756 73.2739 77.835C73.2765 77.835 73.2786 77.835 73.2815 77.8353C73.4894 77.8519 73.6977 77.864 73.9067 77.8703C74.119 77.8773 74.3323 77.8784 74.5449 77.8739C74.9276 76.142 75.5993 74.3037 76.3253 72.3153ZM72.5788 43.9466C72.0798 43.6027 71.7439 43.1965 71.6156 43.0229C71.3018 42.598 71.136 42.1867 71.1728 41.9218L71.1876 41.8527C71.3173 41.3766 72.1089 41.0731 73.2422 41.0731C73.4184 41.0731 73.599 41.0827 73.7817 41.0978C73.9208 41.1092 74.0606 41.1232 74.2018 41.143C74.2134 41.1449 74.2231 41.1471 74.2343 41.1489H74.2339C74.9766 41.2578 75.6591 41.4726 76.1585 41.7578C76.6871 42.0594 76.9534 42.4082 76.9084 42.7393C76.8241 43.3584 75.6692 44.5025 74.2444 44.5025C74.1226 44.5025 74 44.494 73.8797 44.4767C73.3709 44.4046 72.9385 44.1931 72.5846 43.9503C72.5824 43.9492 72.5806 43.9477 72.5788 43.9466ZM121.681 43.4283C121.966 41.5418 122.233 39.7403 122.233 37.714C117.36 37.0482 113.833 37.4403 111.69 38.8721C111.649 38.8993 111.606 38.9258 111.566 38.9541C111.477 39.0167 111.393 39.0825 111.308 39.1488C111.242 39.201 111.177 39.2536 111.114 39.3084C111.047 39.3665 110.981 39.425 110.919 39.4857C110.839 39.5604 110.766 39.6384 110.694 39.7168C110.648 39.7661 110.601 39.8142 110.557 39.8646C110.443 39.9989 110.334 40.1376 110.234 40.2833C106.273 46.063 113.812 59.8648 117.031 65.7586C117.842 67.243 118.428 68.3157 118.69 68.9665C119.11 70.0046 119.578 70.903 120.06 71.702C122.686 66.6253 122.095 61.5059 121.511 56.5399C121.226 54.1325 120.959 51.8579 121.032 49.5844C121.106 47.241 121.398 45.3026 121.681 43.4283ZM115.129 43.2146C113.75 43.2146 112.584 42.0778 112.502 41.4863C112.45 41.0926 112.869 40.6865 113.562 40.3778C113.605 40.3587 113.65 40.3399 113.694 40.3216C114.113 40.1509 114.618 40.0147 115.176 39.9353C115.5 39.8893 115.821 39.8661 116.13 39.8661C117.295 39.8661 118.093 40.1854 118.161 40.6802C118.214 41.0783 117.776 41.842 117.08 42.4277C117.03 42.4692 116.979 42.5097 116.928 42.5491C116.512 42.8662 116.018 43.1145 115.488 43.1895C115.371 43.2061 115.25 43.2146 115.129 43.2146ZM62.2777 79.053C61.5577 79.8546 60.7163 80.8026 59.7873 81.8662C58.0732 83.8284 56.0686 86.177 53.9984 88.7201C50.8868 92.5395 48.662 91.7809 47.9316 91.5326C37.1962 87.8773 27.9847 44.554 27.5685 36.0575C26.9999 24.4439 29.7793 16.3343 35.8302 11.9544C45.1213 5.2288 60.0068 8.67288 67.0061 10.871C67.0515 10.8853 67.0944 10.8989 67.1391 10.9129C67.3791 10.9887 67.6082 11.0626 67.8281 11.1351C67.8771 11.1509 67.9257 11.1667 67.9733 11.1826C68.2356 11.269 68.4878 11.3536 68.7181 11.4331C68.463 11.6748 68.2086 11.9187 67.9621 12.1736C67.0054 13.1606 66.1402 14.2135 65.3561 15.3109C65.1968 15.5335 65.0466 15.7608 64.8941 15.9871C64.8033 16.1221 64.7089 16.2556 64.6206 16.3917C64.4779 16.6106 64.3424 16.8321 64.2062 17.0535C64.1158 17.2011 64.0228 17.3478 63.9349 17.4965C63.8041 17.7168 63.6783 17.9398 63.5533 18.1623C63.4682 18.3143 63.3814 18.4662 63.2982 18.6192C63.1771 18.8429 63.0596 19.0681 62.9436 19.2939C62.8639 19.4481 62.7854 19.6026 62.7086 19.7571C62.5959 19.9844 62.4863 20.2122 62.3786 20.441C62.3058 20.5951 62.2348 20.7496 62.1649 20.9045C62.0597 21.1355 61.9559 21.3673 61.8561 21.5994C61.7916 21.7506 61.7285 21.9018 61.6658 22.0527C61.5671 22.2903 61.4691 22.5283 61.375 22.766C61.3195 22.9076 61.2669 23.0492 61.2125 23.1909C61.1184 23.4388 61.0237 23.6871 60.9343 23.9351C60.8914 24.055 60.8514 24.1746 60.8093 24.2945C60.7152 24.5638 60.6204 24.8335 60.5322 25.102C60.5213 25.1336 60.512 25.1653 60.5019 25.1969C60.1754 26.1983 59.8907 27.1916 59.6403 28.1683C59.6169 28.2599 59.5909 28.3522 59.5686 28.4435C59.5048 28.698 59.4457 28.9497 59.3863 29.202C59.3582 29.3234 59.3286 29.4456 59.3009 29.5666C59.2464 29.805 59.196 30.0412 59.1459 30.2766C59.1178 30.4061 59.0901 30.5363 59.0637 30.6651C59.0165 30.8935 58.9722 31.119 58.929 31.3442C58.9034 31.4755 58.8785 31.6072 58.8544 31.7375C58.8133 31.9571 58.7744 32.1749 58.7369 32.3908C58.7146 32.5207 58.693 32.6498 58.6713 32.7782C58.636 32.9908 58.6018 33.202 58.569 33.4106C58.5499 33.5349 58.5319 33.6574 58.5135 33.7799C58.4829 33.9874 58.4526 34.1938 58.4245 34.3961C58.4083 34.5124 58.3935 34.626 58.3787 34.7412C58.3524 34.9428 58.3254 35.1448 58.302 35.3405C58.2894 35.4446 58.2786 35.5446 58.267 35.6469C58.2436 35.8481 58.2202 36.0508 58.1993 36.2454C58.1946 36.2885 58.1914 36.3293 58.1867 36.372C58.1366 36.8569 58.0937 37.32 58.0591 37.7578C58.0566 37.7887 58.0537 37.8222 58.0512 37.8527C58.0386 38.0194 58.0278 38.1764 58.0166 38.3354C58.0097 38.4277 58.0025 38.5237 57.9968 38.6139C57.9874 38.7551 57.9802 38.8887 57.9723 39.0229C57.9661 39.1208 57.9604 39.2209 57.9557 39.3143C57.9488 39.439 57.9438 39.5571 57.9384 39.6745C57.9341 39.7679 57.9294 39.8621 57.9261 39.9511C57.9218 40.06 57.9179 40.1641 57.9146 40.266C57.9114 40.3525 57.9085 40.4382 57.906 40.5198C57.9034 40.6125 57.9013 40.7027 57.8991 40.7884C57.897 40.8697 57.8955 40.9477 57.8944 41.0224C57.893 41.0959 57.8919 41.1695 57.8905 41.2372C57.8897 41.3111 57.889 41.3796 57.8887 41.4454C57.8887 41.5032 57.8876 41.562 57.8876 41.6139C57.8876 41.6783 57.8876 41.7353 57.8876 41.7905C57.8876 41.8295 57.8876 41.8725 57.8879 41.9067C57.8883 41.9645 57.8887 42.0112 57.8894 42.055C57.8894 42.0741 57.8897 42.0995 57.8897 42.1161C57.8908 42.1694 57.8919 42.211 57.8926 42.2353C57.8926 42.6558 57.9269 43.2583 57.9751 44.0883C58.1557 47.202 58.4922 52.9972 57.5917 59.5723C57.5456 59.9104 57.5103 60.2477 57.4808 60.5843C57.4692 60.7124 57.4624 60.8393 57.4537 60.9673C57.4397 61.17 57.4278 61.3727 57.4199 61.5743C57.4134 61.7388 57.409 61.9032 57.4072 62.0673C57.4051 62.2207 57.4054 62.373 57.4065 62.526C57.408 62.7217 57.4101 62.9171 57.417 63.1117C57.4202 63.1959 57.4263 63.2794 57.4303 63.3633C57.4865 64.4824 57.6325 65.5849 57.8688 66.6606C57.8692 66.6647 57.8706 66.6683 57.871 66.6724C58.6025 69.9855 60.1758 73.0426 62.5104 75.5294C63.0185 76.0702 63.5547 76.568 64.1118 77.03C64.0394 77.1091 63.9562 77.2 63.874 77.2901C63.8329 77.335 63.7947 77.3769 63.7511 77.424C63.6899 77.4914 63.6214 77.5668 63.5551 77.6392C63.4791 77.7224 63.4045 77.8052 63.3227 77.8953C63.2827 77.9387 63.2391 77.9873 63.1973 78.0325C63.0812 78.1609 62.9627 78.2915 62.8358 78.4313C62.8139 78.4559 62.7908 78.4821 62.7681 78.5063C62.6196 78.6708 62.4658 78.8418 62.304 79.0214C62.2957 79.0328 62.2863 79.0431 62.2777 79.053ZM104.442 7.12301C104.45 7.12154 104.457 7.12043 104.464 7.11896C106.668 6.75182 109.298 6.47002 112.193 6.47002C123.38 6.47002 132.203 10.5792 138.416 18.6836C140.84 21.847 140.627 30.9292 137.872 41.8214C135.174 52.487 130.403 63.8441 124.552 73.6779C124.531 73.7125 124.511 73.7471 124.49 73.7813C124.05 74.52 123.605 75.2517 123.152 75.9716C122.874 75.585 122.569 75.1921 122.247 74.7804C122.13 74.6311 122.008 74.4758 121.885 74.3184C125.734 68.0251 124.997 61.7487 124.343 56.1922C124.072 53.8978 123.817 51.7306 123.882 49.6778C123.95 47.5099 124.23 45.6606 124.5 43.8716C124.845 41.5801 125.168 39.4044 125.066 36.7483C125.133 36.5022 125.164 36.2057 125.131 35.8423C124.898 33.3263 122.067 25.7763 116.288 18.9088C112.985 14.9839 108.101 10.5704 101.366 7.74031C101.653 7.67262 101.956 7.60456 102.27 7.53687C102.288 7.53319 102.305 7.52915 102.322 7.52547C102.639 7.45778 102.97 7.39119 103.312 7.32534C103.326 7.32277 103.34 7.31982 103.354 7.31725C103.704 7.25066 104.067 7.18555 104.442 7.12301ZM82.3885 84.6668C82.559 85.2749 82.7474 86.4341 82.0955 87.3667C81.9017 87.643 81.7028 87.9082 81.4995 88.1661C81.4657 88.2092 81.43 88.25 81.3954 88.2927C81.2188 88.5126 81.0387 88.7271 80.8549 88.9331C80.8333 88.9571 80.8109 88.9799 80.7893 89.0045C80.5868 89.2289 80.3796 89.4445 80.1677 89.6531C80.1616 89.6593 80.1554 89.6645 80.1493 89.6704C79.9245 89.8907 79.6946 90.1023 79.4596 90.3039C79.4585 90.305 79.4567 90.3064 79.4553 90.3079V90.3075C76.9556 92.4567 73.9107 93.5475 70.3566 93.5475C68.8442 93.5475 67.2436 93.3392 65.5975 92.9412C65.4963 92.9169 65.3972 92.8992 65.2956 92.8731C63.8517 92.5045 62.638 91.7816 62.2456 91.3398C62.535 91.1158 63.3544 90.6456 65.4718 90.1998C71.9857 88.8305 72.914 87.9424 75.1283 85.0722C75.645 84.4027 76.2302 83.6438 77.0446 82.7156C78.0827 81.5292 78.7418 81.5292 78.9587 81.5292C79.3566 81.5292 79.7598 81.6859 80.2448 81.8916C81.1568 82.2767 82.0386 83.4183 82.3885 84.6668Z" fill="#169976"/>
</svg>
