<svg width="116" height="159" viewBox="0 0 116 159" fill="none" xmlns="http://www.w3.org/2000/svg">
<path d="M48.8061 0.0833549C48.6405 0.131372 48.4583 0.29143 48.4087 0.419477C48.2431 0.835629 48.2927 13.1441 48.4583 13.5762L48.6239 13.9764H53.3764C56.0094 13.9764 58.2449 14.0404 58.3608 14.1204C58.4933 14.1845 58.5595 14.4246 58.5264 14.6326L58.4767 15.0168L53.542 15.0968C49.4022 15.1608 48.5908 15.2088 48.4583 15.4169C48.2431 15.753 48.2431 20.9549 48.4583 21.3551C48.6239 21.6432 48.9054 21.6592 57.1188 21.6592C63.5107 21.6592 65.6634 21.6112 65.8125 21.4671C66.1105 21.179 66.094 7.84617 65.7959 7.59008C65.6469 7.47804 63.9744 7.39801 60.7784 7.382L55.9928 7.33398V6.85381V6.37364L60.8281 6.29361C63.9413 6.24559 65.7297 6.14956 65.8456 6.03751C65.9615 5.92547 66.0112 4.8851 65.9781 2.99641L65.9284 0.131372L57.5163 0.0513439C52.8797 0.00332642 48.9717 0.019331 48.8061 0.0833549Z" fill="#169976"/>
<path d="M27.4609 0.243322C27.3119 0.387375 27.2622 2.9483 27.2622 10.8072C27.2622 19.8985 27.2953 21.1949 27.5106 21.2749C27.6431 21.339 31.5179 21.387 36.1049 21.387C42.9273 21.419 44.4839 21.371 44.7157 21.1949C45.1131 20.8748 45.1131 14.7766 44.7157 14.3925C44.5004 14.1684 43.8215 14.1364 39.781 14.1364C36.3698 14.1364 35.0616 14.0883 34.9126 13.9443C34.7636 13.8002 34.7139 12.8399 34.7139 10.5831C34.7139 7.622 34.7304 7.41392 35.0285 7.25386C35.2272 7.15783 37.115 7.09381 39.9963 7.09381C44.4176 7.09381 44.6495 7.0778 44.8151 6.7897C45.0634 6.32553 45.0303 0.48341 44.7819 0.243322C44.5004 -0.0287762 27.7424 -0.0287762 27.4609 0.243322Z" fill="#169976"/>
<path d="M69.6872 0.243412C69.4057 0.515512 69.4057 13.5122 69.6872 13.7843C69.8362 13.9284 71.161 13.9764 74.6219 13.9764C78.0828 13.9764 79.4075 14.0244 79.5565 14.1685C79.8381 14.4406 79.8049 14.8887 79.4903 15.0008C79.3413 15.0488 77.1223 15.0968 74.5556 15.0968C71.1444 15.0968 69.8362 15.1448 69.6872 15.2889C69.4388 15.529 69.4057 20.8909 69.6541 21.3551C69.8197 21.6432 70.1012 21.6592 78.3477 21.6592C86.5942 21.6592 86.8758 21.6432 87.0413 21.3551C87.1407 21.147 87.2069 18.7141 87.2069 14.5366C87.2069 10.3591 87.1407 7.9262 87.0413 7.71812C86.8758 7.43002 86.6439 7.41401 82.1067 7.41401C79.4903 7.41401 77.2548 7.34999 77.1389 7.26996C77.0064 7.20594 76.9402 6.96585 76.9733 6.75778L77.023 6.37364L81.9576 6.29361C86.0975 6.22958 86.9089 6.18157 87.0413 5.97349C87.2235 5.7174 87.2732 0.723587 87.1076 0.307436C87.0248 0.0833549 86.0975 0.0513439 78.4471 0.0513439C72.0055 0.0513439 69.8362 0.0993614 69.6872 0.243412Z" fill="#169976"/>
<path d="M0.104948 31.3267C-0.0937635 31.5668 -0.0275263 32.4471 0.452693 36.7847C0.53549 37.569 0.684523 39.2336 0.76732 40.466C0.850116 41.6984 0.99915 43.4591 1.09851 44.3874C1.54561 48.9331 1.76088 51.1419 1.84367 52.3103C1.89335 53.0145 2.09206 55.0313 2.25766 56.7919C2.43981 58.5526 2.73788 61.7537 2.92003 63.9145C3.26777 67.996 3.44993 69.8847 3.83079 73.518C3.96326 74.7024 4.14542 76.8152 4.24477 78.1917C4.34413 79.5842 4.44348 80.8006 4.49316 80.9127C4.59252 81.2328 5.05618 86.3386 5.15553 88.4834C5.20521 89.5398 5.35424 91.2684 5.48672 92.3248C5.61919 93.3812 5.83446 95.606 5.9835 97.2866C6.13253 98.9512 6.36436 101.4 6.48028 102.729C6.92738 107.434 7.92093 118.03 8.46739 124.096C8.68266 126.513 8.98073 129.714 9.12976 131.219C9.26224 132.707 9.49407 135.268 9.62654 136.901C9.77558 138.534 9.94117 140.438 10.0405 141.143C10.1233 141.847 10.2392 143.063 10.3055 143.831C10.4545 145.688 10.6035 145.864 12.7728 146.424C15.8197 147.209 18.552 147.945 19.8933 148.345C20.6219 148.553 21.8473 148.889 22.6256 149.065C23.4039 149.257 25.126 149.722 26.4508 150.106C27.7755 150.506 29.3487 150.922 29.9282 151.05C30.5078 151.162 31.7001 151.466 32.5612 151.706C33.4222 151.946 35.7074 152.571 37.6117 153.099C39.5326 153.627 41.5529 154.155 42.1324 154.267C42.6954 154.395 43.2253 154.523 43.2916 154.571C43.3578 154.603 43.9705 154.795 44.6494 154.956C45.3284 155.132 46.9677 155.58 48.2925 155.948C50.9917 156.684 51.4222 156.796 54.6678 157.693C58.2943 158.685 57.4001 158.733 62.8647 157.228C63.1793 157.132 64.2722 156.844 65.2658 156.588C66.2759 156.316 67.3191 156.044 67.5841 155.964C67.8656 155.884 68.6107 155.676 69.24 155.5C69.8858 155.324 70.9622 155.02 71.6411 154.827C72.32 154.635 73.297 154.379 73.7938 154.267C74.2906 154.155 75.3835 153.883 76.1949 153.659C79.5068 152.731 83.1332 151.77 85.9649 151.05C87.1406 150.746 88.5647 150.378 89.1112 150.202C89.6576 150.042 90.5518 149.786 91.0983 149.642C91.6447 149.498 92.4727 149.273 92.9198 149.145C93.3835 149.017 94.9069 148.617 96.3144 148.249C97.722 147.897 99.4773 147.417 100.206 147.209C100.934 147.017 102.292 146.649 103.22 146.408C105.521 145.8 105.538 145.784 105.67 144.024C105.737 143.223 105.803 142.471 105.853 142.343C105.886 142.215 105.985 141.127 106.068 139.942C106.167 138.758 106.316 137.029 106.416 136.101C106.515 135.172 106.73 132.723 106.929 130.659C107.111 128.594 107.359 125.921 107.492 124.737C107.624 123.552 107.807 121.487 107.906 120.175C108.005 118.846 108.237 116.398 108.403 114.733C108.585 113.052 108.833 110.251 108.982 108.475C109.131 106.714 109.347 104.329 109.479 103.193C109.612 102.056 109.794 99.9756 109.893 98.5671C110.108 95.3979 110.522 90.9323 110.721 89.4438C110.82 88.8195 111.003 86.9469 111.135 85.2823C111.267 83.6016 111.499 81.1207 111.632 79.7603C111.781 78.3998 111.963 76.335 112.046 75.1986C112.129 74.0462 112.344 71.5653 112.543 69.6766C112.725 67.7879 113.023 64.6188 113.205 62.634C113.387 60.6493 113.635 57.8483 113.785 56.3918C113.917 54.9352 114.149 52.4223 114.281 50.7897C114.43 49.1572 114.728 45.988 114.944 43.7472C115.175 41.5064 115.424 38.7214 115.523 37.585C115.606 36.4325 115.755 34.6399 115.871 33.5675C115.987 32.5111 116.037 31.5188 115.97 31.3747C115.871 31.1186 112.261 31.1026 58.0956 31.1026C7.88781 31.1026 0.2871 31.1346 0.104948 31.3267ZM94.0458 54.9833C94.1783 55.1753 94.1617 55.8156 94.0127 57.2241C93.8968 58.3125 93.7478 60.1211 93.665 61.2735C93.5987 62.41 93.4497 63.9625 93.3503 64.7148C92.9198 67.98 92.6714 70.3488 92.6714 71.3412C92.6714 72.6377 92.274 77.4234 91.9262 80.4005C91.7938 81.5849 91.5288 84.2099 91.3467 86.2426C91.1645 88.2593 90.8996 91.0443 90.7671 92.4048C90.618 93.7653 90.4028 96.1822 90.2703 97.7668C90.0219 100.84 89.3264 108.411 89.0284 111.452C88.5481 116.253 88.3494 118.43 88.2004 120.495C88.0182 123.392 87.7036 125.633 87.4718 125.953C87.3559 126.081 86.4948 126.401 85.5509 126.657C84.5905 126.897 83.2492 127.265 82.5702 127.442C81.8913 127.634 80.5169 128.002 79.5068 128.274C78.5132 128.546 77.056 128.946 76.2777 129.17C75.4994 129.394 74.4562 129.666 73.9594 129.778C73.4626 129.89 71.7073 130.339 70.068 130.803C66.3587 131.811 66.16 131.875 64.9346 132.179C64.3881 132.323 63.4608 132.579 62.8647 132.739C59.1719 133.812 58.3937 134.02 57.9631 134.02C57.5326 134.02 54.7175 133.316 51.7699 132.451C51.1738 132.275 49.7994 131.907 48.7065 131.619C47.6136 131.347 46.3882 131.011 45.9742 130.899C45.5602 130.787 44.3679 130.467 43.3247 130.195C42.2815 129.906 40.6752 129.474 39.7645 129.234C38.8537 128.978 36.1711 128.242 33.8031 127.618C28.6697 126.225 28.2723 126.097 28.1895 125.633C28.1398 125.457 27.9908 123.888 27.8583 122.176C27.7093 120.463 27.4775 118.046 27.345 116.814C27.1297 114.829 26.5336 108.331 26.3018 105.546C26.2355 104.681 26.2686 104.489 26.5336 104.297C26.9476 103.993 40.2281 103.993 40.4599 104.281C40.7911 104.681 40.8574 105.209 41.4204 111.884C41.5529 113.452 41.735 114.765 41.8675 114.957C42.149 115.405 43.0763 115.693 47.7957 116.878C50.3293 117.518 52.9788 118.206 54.585 118.654C57.5326 119.487 57.8803 119.519 59.1554 119.231C59.7846 119.103 60.8941 118.798 61.6062 118.574C62.3182 118.35 63.0634 118.174 63.229 118.174C63.4111 118.174 64.2391 117.966 65.0671 117.71C66.458 117.294 67.8821 116.926 71.3265 116.093C73.0983 115.661 73.8766 115.341 74.0919 114.925C74.3237 114.509 74.837 109.515 75.2013 104.233C75.3504 102.152 75.5657 99.8475 75.6981 99.1113C75.9631 97.4627 75.8472 97.0465 75.0854 97.0465C74.7874 97.0465 63.6098 97.0465 50.2465 97.0465C29.3487 97.0465 25.9374 97.0145 25.7222 96.8224C25.5897 96.6944 25.4407 96.1182 25.391 95.494C25.3413 94.9017 25.1757 93.3652 25.0432 92.0847C24.7783 89.5398 24.3974 84.8501 24.3809 83.8417L24.3643 83.2015L50.5446 83.1535C73.4461 83.1215 76.7579 83.0895 76.9401 82.8814C77.056 82.7533 77.2713 81.3128 77.4534 79.4882C77.619 77.7435 77.8343 75.5987 77.9502 74.7024C78.2648 71.8694 78.3973 69.2925 78.2483 68.9243L78.0992 68.5562H50.7267C23.8841 68.5562 23.3376 68.5562 23.0561 68.2521C22.8077 67.996 22.7415 67.4518 22.6256 65.323C22.5428 63.8825 22.4269 62.394 22.3772 61.9938C21.8473 57.8643 21.632 55.0633 21.8142 54.8552C21.9798 54.6631 26.9641 54.6311 57.9466 54.6631C91.4791 54.7112 93.8968 54.7272 94.0458 54.9833Z" fill="#169976"/>
</svg>
