<svg width="109" height="159" viewBox="0 0 109 159" fill="none" xmlns="http://www.w3.org/2000/svg">
<path fill-rule="evenodd" clip-rule="evenodd" d="M48.19 12.5895H30.195C20.2566 12.5895 12.2 20.7169 12.2 30.7426C12.2 40.7683 20.2566 48.8958 30.195 48.8958H48.19V12.5895ZM48.19 0.282227H60.39H78.385C95.0618 0.282227 108.579 13.9197 108.579 30.7426C108.579 40.6701 103.873 49.4885 96.5856 55.0494C103.873 60.6104 108.579 69.4288 108.579 79.3563C108.579 96.179 95.0618 109.817 78.385 109.817C71.6422 109.817 65.4155 107.587 60.39 103.819V109.817V127.97C60.39 144.793 46.8712 158.43 30.195 158.43C13.5187 158.43 0 144.793 0 127.97C0 118.042 4.70774 109.224 11.9941 103.663C4.70774 98.1019 0 89.2837 0 79.3563C0 69.4288 4.70786 60.6104 11.9943 55.0495C4.70786 49.4885 0 40.6701 0 30.7426C0 13.9197 13.5187 0.282227 30.195 0.282227H48.19ZM60.39 12.5895V48.8958H78.385C88.3237 48.8958 96.3794 40.7683 96.3794 30.7426C96.3794 20.7169 88.3237 12.5895 78.385 12.5895H60.39ZM30.195 97.5092H48.19V79.403V79.3563V79.3095V61.2031H30.195C20.2566 61.2031 12.2 69.3306 12.2 79.3563C12.2 89.358 20.2181 97.4706 30.1236 97.5093L30.195 97.5092ZM12.2 127.97C12.2 117.968 20.2181 109.855 30.1236 109.817L30.195 109.817H48.19V127.97C48.19 137.995 40.1334 146.123 30.195 146.123C20.2566 146.123 12.2 137.995 12.2 127.97ZM60.39 79.3201C60.4094 69.311 68.4586 61.2031 78.385 61.2031C88.3237 61.2031 96.3794 69.3306 96.3794 79.3563C96.3794 89.382 88.3237 97.5094 78.385 97.5094C68.4586 97.5094 60.4094 89.4016 60.39 79.3925V79.3201Z" fill="#169976"/>
</svg>
