<svg width="116" height="159" viewBox="0 0 116 159" fill="none" xmlns="http://www.w3.org/2000/svg">
<path d="M10.9033 0.38662C10.7041 0.6042 10.6544 3.60199 10.6793 10.9514L10.7539 21.2019H14.3635H17.9731L18.0478 17.769L18.1225 14.336L18.9689 14.1668C20.0891 13.9734 24.2215 14.1426 24.4953 14.3844C24.5949 14.5052 24.7443 16.0767 24.8189 17.8898L24.9434 21.2019H28.553H32.1626L32.1875 10.9272C32.2124 4.42396 32.1377 0.531673 31.9884 0.338268C31.7145 0.023983 25.9889 -0.0968952 25.2172 0.193213C24.8936 0.314091 24.8189 0.845957 24.8189 3.40858C24.8189 5.46352 24.7194 6.5756 24.5202 6.76901C24.1966 7.08329 19.2427 7.17999 18.4959 6.91406C18.1723 6.79318 18.0976 6.26132 18.0976 3.69869C18.0976 1.64375 17.998 0.531673 17.7989 0.338268C17.3508 -0.0968952 11.2767 -0.0727196 10.9033 0.38662Z" fill="#169976"/>
<path d="M35.623 0.36241C35.5732 0.531639 35.5483 2.07889 35.5732 3.81954L35.6479 6.9382L38.6352 7.05908L41.6224 7.17996L41.7469 14.1909L41.8714 21.2019L45.5557 21.2744L49.215 21.3469V14.5777C49.215 10.8547 49.2897 7.66347 49.3644 7.44589C49.4889 7.13161 50.0117 7.05908 52.5757 7.05908C55.1398 7.05908 55.6625 6.98655 55.787 6.67227C56.0857 5.947 55.9613 0.652519 55.6377 0.338234C55.1896 -0.0969276 35.7973 -0.072752 35.623 0.36241Z" fill="#169976"/>
<path d="M59.0479 0.338268C58.9732 0.507498 58.9483 5.27011 58.9732 10.9272L59.0479 21.2019H62.6575H66.2671L66.3916 16.4876C66.4662 13.4657 66.6156 11.8217 66.765 11.8701C66.989 11.9668 67.5616 12.7646 68.7565 14.5778C68.8809 14.7953 69.4535 15.6898 70.0012 16.5843C70.5488 17.4547 71.1214 18.1799 71.2707 18.1799C71.5695 18.1799 72.0673 17.6964 72.4905 16.947C74.2331 13.9008 75.8761 11.6525 76.374 11.6525C76.4736 11.6525 76.5482 13.8041 76.5233 16.4151L76.4736 21.2019H80.0832H83.6928V10.6855V0.169037L80.3321 0.0965099C78.4899 0.0723343 76.7474 0.0965099 76.4487 0.144861C76.125 0.241564 75.4529 1.03936 74.7061 2.24815C74.034 3.33606 73.2871 4.52066 73.0631 4.85913C72.8142 5.19758 72.5403 5.65692 72.4656 5.85033C72.2167 6.35802 71.5695 7.05911 71.3454 7.05911C71.2459 7.05911 70.499 6.01956 69.7024 4.73825C68.9058 3.45693 68.0594 2.12727 67.8354 1.78881C67.5865 1.42617 67.3126 0.966835 67.2131 0.77343C66.9143 0.120686 66.5409 0.0481586 62.8317 0.0481586C60.1183 0.0481586 59.1226 0.120686 59.0479 0.338268Z" fill="#169976"/>
<path d="M87.5764 0.362413C87.3772 0.628347 87.3026 3.48108 87.3523 10.9514L87.427 21.2019L96.339 21.2744L105.251 21.3228L105.176 17.8898L105.102 14.4327L100.222 14.3601C96.5382 14.3118 95.2437 14.2151 95.0445 13.9733C94.8703 13.7799 94.7458 11.3382 94.7209 6.91403L94.6462 0.169008L91.2607 0.0964813C88.597 0.04813 87.8004 0.0964813 87.5764 0.362413Z" fill="#169976"/>
<path d="M0.0247954 31.5007C-0.049886 31.6457 0.0496892 33.4106 0.24884 35.4413C0.97076 41.9688 1.1948 44.3622 1.41885 47.5533C1.54332 49.2698 1.76736 51.3973 1.91672 52.2676C2.04119 53.1379 2.16566 54.661 2.16566 55.6522C2.16566 56.6434 2.29013 58.1181 2.4146 58.9159C2.56396 59.7137 2.78801 61.7687 2.91248 63.5093C3.01205 65.2258 3.2361 67.9093 3.38546 69.4324C4.75462 83.285 4.95377 85.1708 5.15292 88.0477C5.32718 90.4652 5.55122 92.9795 6.17357 99.0476C6.32293 100.498 6.54697 102.964 6.64655 104.487C6.87059 107.412 7.21911 111.184 7.66719 115.245C7.81656 116.575 8.0406 118.92 8.14018 120.443C8.23975 121.966 8.4638 124.408 8.61316 125.883C8.76252 127.333 9.06125 130.5 9.2604 132.894C9.48444 135.287 9.78317 138.43 9.93253 139.905C10.0819 141.355 10.2562 143.313 10.3557 144.232L10.5051 145.9L11.7498 146.311C12.9198 146.722 14.3387 147.109 17.3011 147.907C17.9981 148.1 19.2179 148.414 19.9647 148.608C21.309 148.97 22.6533 149.333 25.4912 150.083C26.2878 150.3 27.2835 150.566 27.6818 150.711C28.105 150.832 28.8269 151.025 29.2999 151.122C29.7729 151.219 30.5695 151.436 31.0425 151.581C31.864 151.823 32.561 152.017 36.1955 152.984C36.9921 153.177 37.9879 153.467 38.3862 153.612C38.8094 153.733 39.5313 153.926 40.0043 154.023C40.4772 154.12 41.2738 154.313 41.7468 154.458C42.2198 154.603 43.2653 154.893 44.0619 155.111C44.8337 155.329 46.1032 155.643 46.8501 155.861C47.5969 156.054 48.8416 156.392 49.5884 156.586C50.3352 156.803 51.6048 157.118 52.3765 157.335C53.1731 157.553 54.1688 157.819 54.5671 157.964C57.3552 158.858 58.7742 158.762 63.031 157.384C63.4542 157.239 64.2259 157.045 64.7736 156.948C65.3213 156.852 66.1179 156.658 66.5162 156.513C66.9394 156.368 67.8853 156.102 68.6321 155.909C69.379 155.715 70.6485 155.377 71.4451 155.159C72.2168 154.942 73.4864 154.603 74.2332 154.41C75.6273 154.047 77.569 153.491 79.5854 152.935C80.2078 152.766 81.3778 152.452 82.1993 152.234C83.6182 151.872 84.1908 151.726 87.6759 150.784C88.4974 150.566 89.518 150.276 89.9163 150.131C90.3395 150.01 90.937 149.841 91.2855 149.792C91.9078 149.672 93.8994 149.14 95.5174 148.656C95.9904 148.511 96.787 148.318 97.26 148.221C97.733 148.124 98.4798 147.931 98.8781 147.81C99.3013 147.665 100.247 147.375 100.994 147.181C101.741 146.988 102.986 146.65 103.757 146.432L105.151 146.045L105.575 143.072C105.799 141.428 105.973 139.445 105.973 138.672C105.973 137.874 106.147 136.036 106.346 134.586C106.545 133.111 106.72 131.371 106.72 130.718C106.72 130.041 106.869 127.986 107.093 126.124C107.74 120.08 108.014 117.228 108.213 114.399C108.388 111.812 108.537 110.289 109.234 103.52C109.383 102.118 109.582 99.6278 109.707 97.9597C109.831 96.2916 110.055 94.1641 110.18 93.2454C110.329 92.3026 110.454 90.9487 110.454 90.2235C110.454 89.4982 110.603 87.3707 110.802 85.5092C111.474 79.3444 111.748 76.5884 111.947 73.9049C112.147 71.0038 112.57 66.5555 112.968 62.784C113.117 61.4544 113.341 59.1093 113.441 57.5863C113.69 54.0566 114.113 49.6566 114.561 45.4984C114.76 43.7094 114.935 41.6786 114.935 41.0259C114.935 40.349 115.109 38.5842 115.308 37.1094C115.532 35.6105 115.681 33.7248 115.632 32.8787L115.557 31.3556L57.878 31.2831C15.8822 31.2589 0.149264 31.3073 0.0247954 31.5007ZM94.0238 56.305C93.9989 57.2236 93.8994 58.6983 93.7749 59.6412C93.6255 60.5599 93.4264 62.8324 93.3019 64.6698C93.1774 66.628 92.9534 68.1269 92.7791 68.3445C92.5053 68.6587 88.9704 68.7071 65.147 68.7071C43.0413 68.7071 37.7638 68.7554 37.5647 69.0214C37.3655 69.239 37.3904 70.2543 37.6393 72.5752C37.8385 74.3642 38.1372 77.1928 38.2866 78.8367C38.4359 80.4807 38.6351 82.1004 38.7347 82.4631L38.9089 83.0916L64.7985 83.14C79.0129 83.1642 90.8872 83.2125 91.1361 83.2125C91.5593 83.2125 91.5842 83.3334 91.4349 84.5905C91.3353 85.3642 91.161 87.2982 91.0366 88.8938C90.937 90.4894 90.7129 92.9312 90.5636 94.3333C89.8914 100.957 89.7172 102.626 89.5429 105.212C89.4185 106.735 89.2193 109.129 89.07 110.531C88.7463 113.674 88.0991 120.757 87.8502 123.828L87.6759 126.124L86.5557 126.656C85.9333 126.946 85.2114 127.188 84.9127 127.188C84.6389 127.212 83.9169 127.357 83.2946 127.551C82.0748 127.913 80.0584 128.469 77.9673 129.025C75.9011 129.557 71.5198 130.742 69.8768 131.201C69.2545 131.371 68.0347 131.685 67.1385 131.927C66.2423 132.168 65.0225 132.483 64.4002 132.652C63.7778 132.845 62.6327 133.16 61.861 133.353C61.0644 133.571 59.8197 133.933 59.0978 134.151C57.9029 134.489 57.654 134.513 56.6582 134.175C55.4882 133.788 54.7663 133.571 48.5428 131.902C47.7462 131.685 46.7754 131.419 46.3522 131.274C45.9539 131.153 45.2071 130.96 44.7341 130.839C43.813 130.645 41.473 130.041 40.1785 129.654C39.7304 129.533 38.7347 129.267 37.9381 129.05C37.1664 128.832 35.8968 128.518 35.15 128.3C34.4031 128.107 33.1585 127.768 32.4116 127.575C29.3248 126.753 28.3042 126.366 28.1797 126.052C28.105 125.858 27.9308 124.384 27.8063 122.764C27.6569 121.168 27.3831 118.316 27.1839 116.454C26.9599 114.593 26.8105 112.586 26.8105 111.982C26.8105 111.401 26.6363 109.564 26.4122 107.944C26.1135 105.696 26.0886 104.874 26.2878 104.632C26.5118 104.366 27.9557 104.294 33.2331 104.27C36.8925 104.245 40.0291 104.342 40.2283 104.463C40.6515 104.729 40.9751 106.349 41 108.476C41 109.395 41.1743 111.256 41.3734 112.586C41.5726 113.916 41.7468 115.124 41.7468 115.27C41.7468 115.415 42.4438 115.729 43.3151 115.946C44.1615 116.188 45.3066 116.527 45.8543 116.72C46.4269 116.913 47.1239 117.059 47.4226 117.059C47.7213 117.059 48.3935 117.204 48.8913 117.397C49.4141 117.566 50.5592 117.905 51.4554 118.146C53.4967 118.654 55.2642 119.113 56.6333 119.5C57.4797 119.742 57.878 119.742 58.5252 119.524C58.9733 119.355 59.521 119.234 59.7699 119.234C60.0189 119.234 60.7408 119.089 61.388 118.896C62.0104 118.702 63.1804 118.364 63.977 118.171C66.5908 117.469 68.2587 117.034 69.13 116.768C69.603 116.599 70.4494 116.406 70.997 116.309C71.5447 116.212 72.4409 115.971 72.9885 115.777L73.9843 115.415L74.283 112.054C74.4573 110.217 74.7809 107.146 74.9801 105.212C75.5526 99.6037 75.6273 97.7905 75.2539 97.5004C75.0298 97.3311 67.4621 97.2344 50.3601 97.2344C36.8178 97.2344 25.6654 97.1619 25.541 97.0894C25.4165 97.0168 25.3169 96.4608 25.3169 95.8322C25.3169 95.2037 25.1675 93.1729 24.9435 91.3114C24.2963 85.2675 24.0224 82.4147 23.8233 79.5862C23.6241 76.9027 23.3503 73.929 22.8026 68.828C22.6533 67.4983 22.4292 65.1049 22.3296 63.5093C22.2052 61.9137 22.006 59.4236 21.8318 57.9973C21.6824 56.5467 21.6077 55.217 21.6824 55.0236C21.8069 54.7335 26.8105 54.6852 57.9278 54.6852H94.0238V56.305Z" fill="#169976"/>
</svg>
