<svg width="137" height="187" viewBox="0 0 137 187" fill="none" xmlns="http://www.w3.org/2000/svg">
<path d="M64.3526 100.397C64.3526 100.397 54.0395 80.3494 54.4205 65.7006C54.6984 55.2326 78.0957 44.8849 87.2815 29.8596C96.4514 14.8262 86.1383 0.185547 86.1383 0.185547C86.1383 0.185547 88.4328 10.9818 82.3192 22.1467C76.2061 33.3276 53.642 39.8869 44.8692 59.1572C36.0965 78.4276 64.3526 100.397 64.3526 100.397Z" fill="#169976"/>
<path d="M102.954 39.4944C102.954 39.4944 67.8062 52.9899 67.8062 68.3995C67.8062 83.8251 77.3493 88.8309 78.8896 93.8367C80.4141 98.8585 76.2142 107.332 76.2142 107.332C76.2142 107.332 89.9654 97.6971 87.6628 86.5166C85.3683 75.3357 74.6738 71.8596 80.7951 60.6951C84.8839 53.2064 102.954 39.4944 102.954 39.4944Z" fill="#169976"/>
<path d="M60.5418 120.764C93.0218 119.595 104.868 109.255 104.868 109.255C83.86 115.029 28.0698 114.653 27.6808 110.416C27.3076 106.179 44.8697 102.703 44.8697 102.703C44.8697 102.703 17.3677 102.703 15.0732 109.639C12.7783 116.575 28.0853 121.909 60.5418 120.764Z" fill="#169976"/>
<path d="M107.535 137.006C107.535 137.006 139.324 130.167 136.18 112.747C132.369 91.5385 110.202 103.488 110.202 103.488C110.202 103.488 125.882 103.488 127.399 113.115C128.931 122.75 107.535 137.006 107.535 137.006Z" fill="#169976"/>
<path d="M91.8705 127.764C91.8705 127.764 83.8596 129.886 71.9903 131.232C56.0797 133.034 36.8426 131.608 35.3103 128.909C33.802 126.21 37.9858 124.672 37.9858 124.672C18.8756 129.301 29.3319 137.383 51.7289 138.936C70.9263 140.258 99.5001 133.154 99.5001 133.154L91.8705 127.764Z" fill="#169976"/>
<path d="M42.5904 144.599C42.5904 144.599 33.9207 144.848 33.4124 149.477C32.9122 154.074 38.7478 158.207 60.1521 159.489C81.5487 160.77 96.5859 153.586 96.5859 153.586L86.9077 147.659C86.9077 147.659 80.7864 148.956 71.3622 150.238C61.9302 151.528 42.5896 149.205 41.8278 147.419C41.05 145.616 42.5904 144.599 42.5904 144.599Z" fill="#169976"/>
<path d="M125.867 165.415C129.177 161.811 124.842 158.984 124.842 158.984C124.842 158.984 126.367 160.786 124.35 162.836C122.31 164.887 103.708 170.02 73.9033 171.566C44.1068 173.112 11.7538 168.739 10.7294 164.887C9.73715 161.034 27.2989 157.958 27.2989 157.958C25.2664 158.215 0.813102 158.727 0.0350178 165.415C-0.72724 172.086 10.7294 177.485 56.5952 177.485C102.438 177.477 122.572 168.995 125.867 165.415Z" fill="#169976"/>
<path d="M108.043 180.568C87.9164 184.669 26.7988 182.082 26.7988 182.082C26.7988 182.082 66.5198 191.597 111.861 183.636C133.536 179.823 134.798 169.243 134.798 169.243C134.798 169.243 128.169 176.443 108.043 180.568Z" fill="#169976"/>
</svg>
