<svg width="130" height="133" viewBox="0 0 130 133" fill="none" xmlns="http://www.w3.org/2000/svg">
<path d="M0.122124 0.291702C0.0523388 0.381287 0 30.1263 0 66.3578V132.263H64.9175H129.835L129.922 131.403C130.079 129.987 129.975 0.41713 129.818 0.255859C129.608 0.0408325 0.261694 0.0766754 0.122124 0.291702ZM100.839 61.1256C101.328 61.2152 102.061 61.3406 102.497 61.3944C105.532 61.8065 108.655 63.2758 111.045 65.444C112.022 66.322 114.186 68.974 114.186 69.2965C114.186 69.3682 114.29 69.5653 114.43 69.7086C114.57 69.8699 114.727 70.1924 114.796 70.4433C114.884 70.8554 114.727 70.9988 112.581 72.3964C109.615 74.3137 108.62 74.9767 107.19 75.9443C106.544 76.3744 105.899 76.7148 105.759 76.7148C105.62 76.7148 105.149 76.2131 104.712 75.5859C102.811 72.8981 101.031 71.8409 98.3097 71.8051C96.7395 71.7872 95.117 72.0739 94.6634 72.4681C94.5064 72.5935 94.1749 72.8086 93.9132 72.934C93.3026 73.2565 92.3605 74.7796 92.1686 75.801C92.0814 76.2489 92.0639 77.2524 92.1163 78.0229C92.2035 79.1697 92.3256 79.5639 92.7443 80.209C93.7388 81.7141 95.9196 83.058 100.839 85.2262C108.865 88.7383 112.685 91.2827 115.442 94.9023C116.279 96.0132 117.85 99.2028 117.85 99.812C117.85 99.9912 117.954 100.421 118.094 100.744C118.233 101.084 118.443 102.285 118.565 103.432C118.739 105.098 118.739 105.922 118.565 107.642C118.443 108.807 118.233 110.044 118.094 110.366C117.954 110.689 117.85 111.101 117.85 111.262C117.85 111.441 117.727 111.746 117.588 111.943C117.448 112.122 117.326 112.391 117.326 112.534C117.326 113.072 115.198 116.279 114.151 117.319C112.895 118.591 110.522 120.203 109.126 120.795C108.603 121.01 107.94 121.279 107.643 121.404C107.138 121.637 106.004 121.924 103.439 122.497C101.712 122.873 95.7102 122.873 93.5294 122.479C92.6571 122.336 91.6278 122.121 91.244 122.031C90.8601 121.924 90.267 121.78 89.9355 121.691C86.2369 120.777 81.1775 117.516 79.1537 114.756C78.8048 114.272 78.2988 113.645 78.0546 113.376C77.7929 113.09 77.4265 112.516 77.2172 112.086C77.0078 111.656 76.7636 111.262 76.6589 111.208C76.5717 111.137 76.5019 110.904 76.5019 110.689C76.5019 110.348 76.8159 110.079 78.1244 109.291C78.9967 108.753 79.8516 108.252 79.9911 108.18C80.1307 108.108 80.4098 107.965 80.6017 107.84C80.7936 107.714 81.7881 107.123 82.7825 106.531C86.3241 104.399 86.2718 104.417 86.5684 105.062C86.673 105.295 86.9696 105.743 87.2488 106.084C89.6738 109.04 91.2963 110.241 94.0877 111.172C95.117 111.513 95.6404 111.549 98.3097 111.549L101.363 111.531L102.671 110.904C104.695 109.918 105.55 108.915 106.056 106.926C106.318 105.904 106.318 105.797 105.864 103.682C105.724 102.984 105.131 102.034 104.398 101.335C103.456 100.457 101.014 99.0236 98.7459 98.038C97.5944 97.5363 96.3208 96.9629 95.9196 96.7658C95.5009 96.5866 94.8379 96.2641 94.4366 96.0849C89.5866 93.863 87.5279 92.5549 85.0854 90.118C83.4106 88.4336 82.4859 87.1793 81.6485 85.4412C80.7064 83.4522 80.34 81.965 80.1481 79.3489C79.8167 74.8692 80.2703 72.5756 82.2417 68.6873C82.7302 67.7197 84.562 65.7307 85.888 64.7272C87.3709 63.5984 89.8308 62.3082 91.2265 61.914C92.6222 61.5198 94.489 61.1435 95.3438 61.0718C96.9314 60.9464 99.9845 60.9643 100.839 61.1256ZM69.5234 62.2903C69.6455 62.362 69.6978 69.6011 69.6978 83.6673C69.6804 103.736 69.6629 105.062 69.3489 107.266C69.157 108.538 68.8604 110.169 68.6685 110.868C68.1974 112.588 66.8715 115.437 66.1562 116.261C65.8422 116.638 65.3188 117.283 65.0048 117.713C64.5163 118.376 61.8819 120.616 61.6028 120.616C61.5504 120.616 60.9398 120.902 60.242 121.225C59.5441 121.565 58.5846 121.942 58.0961 122.067C57.625 122.174 56.9446 122.372 56.6131 122.515C56.2642 122.64 54.9034 122.837 53.5949 122.963C49.024 123.393 44.2088 122.479 41.0336 120.58C40.58 120.311 40.1613 120.078 40.109 120.078C40.0566 120.078 39.5507 119.702 38.975 119.254C37.6316 118.197 35.7997 116.297 35.0495 115.204C34.1947 113.968 33.0607 112.033 33.0607 111.835C33.0607 111.602 42.691 105.725 42.9353 105.815C43.0399 105.851 43.4063 106.37 43.7203 106.944C44.9765 109.219 46.7909 111.083 48.3785 111.71C49.4078 112.14 51.4141 112.104 52.6703 111.656C53.8043 111.262 55.2174 110.259 55.7059 109.542C56.1246 108.897 56.5608 107.499 56.7178 106.281C56.7876 105.743 56.8574 96.9808 56.8923 86.8389C56.9097 76.679 56.9272 67.0029 56.9446 65.3006L56.9621 62.2186L58.4973 62.1469C60.6956 62.0394 69.314 62.1649 69.5234 62.2903Z" fill="#169976"/>
</svg>
