<svg width="157" height="130" viewBox="0 0 157 130" fill="none" xmlns="http://www.w3.org/2000/svg">
<path d="M107.878 0.155273C107.083 0.155273 106.355 0.980648 106.355 2.129V38.1943L100.044 33.4266C99.6489 33.1247 99.2037 32.978 98.7581 32.978C98.3124 32.978 97.8672 33.1247 97.4722 33.4266L82.3083 44.8844C81.5182 45.475 81.0323 46.5679 81.0323 47.7425V70.6838C81.0323 71.865 81.5182 72.9513 82.3083 73.5418L97.4722 84.9997C97.8672 85.3015 98.3124 85.4483 98.7581 85.4483C99.2037 85.4483 99.6489 85.3015 100.044 84.9997L115.208 73.5418C115.998 72.9513 116.484 71.8584 116.484 70.6838V59.2131V47.7425V8.22959C116.484 7.06156 116.003 5.98775 115.228 5.39717L108.63 0.424417C108.382 0.240682 108.131 0.155273 107.878 0.155273ZM58.2419 32.978C57.7975 32.978 57.3536 33.128 56.956 33.4266L41.7921 44.8844C41.0021 45.475 40.5161 46.5679 40.5161 47.7425V70.6838C40.5161 71.865 41.0021 72.9513 41.7921 73.5418L56.956 84.9997C57.7512 85.5968 58.7327 85.5968 59.5278 84.9997L74.6917 73.5418C75.4818 72.9513 75.9677 71.8584 75.9677 70.6838V47.7425C75.9677 46.5613 75.4818 45.475 74.6917 44.8844L59.5278 33.4266C59.1303 33.128 58.6863 32.978 58.2419 32.978ZM139.274 32.978C138.829 32.978 138.383 33.1247 137.988 33.4266L122.824 44.8844C122.034 45.475 121.548 46.5679 121.548 47.7425V70.6838C121.548 71.865 122.034 72.9513 122.824 73.5418L137.533 85.0638C138.323 85.6872 139.315 85.6931 140.115 85.0894L147.346 79.6424C148.095 79.0847 148.1 77.6757 147.346 77.1048L131.677 65.1471V53.3689L139.274 47.6399L146.871 53.3689V61.5714C146.871 62.6672 147.582 62.836 148.058 62.4685C149.972 61.0117 155.744 56.6755 155.744 56.6755C156.519 56.0915 157 55.0111 157 53.8431V47.7425C157 46.5613 156.514 45.475 155.724 44.8844L140.56 33.4266C140.16 33.1247 139.72 32.978 139.274 32.978ZM17.7258 32.9908C17.2801 32.9908 16.8349 33.1376 16.4399 33.4394L1.27602 44.8844C0.485956 45.4816 0 46.5741 0 47.7553V77.0407C0 78.4712 1.19436 79.358 2.14648 78.6428L8.8728 73.5675C9.64767 72.9769 10.129 71.9031 10.129 70.7351V53.3945L17.7258 47.6528L25.3226 53.3945V70.7351C25.3226 71.9031 25.8039 72.9769 26.5788 73.5675L33.3051 78.6428C34.2573 79.3646 35.4516 78.4712 35.4516 77.0407V47.7553C35.4516 46.5741 34.9657 45.4816 34.1756 44.8844L19.0117 33.4394C18.6167 33.1376 18.1715 32.9908 17.7258 32.9908ZM98.7581 47.6399L106.355 53.3817V59.2131V65.0446L98.7581 70.7863L91.1613 65.0446V53.3817L98.7581 47.6399ZM139.274 52.6768L134.932 55.9578V62.5069L139.274 65.7751L143.617 62.5069V55.9578L139.274 52.6768ZM78.0252 78.8863C77.5042 78.8863 76.9775 79.0515 76.5217 79.3861L62.2777 90.0493C61.3408 90.7187 60.7742 92.0358 60.7742 93.4072V114.708C60.7742 116.08 61.3661 117.37 62.2777 118.066L66.0266 120.834C67.8246 121.983 68.4854 121.988 69.3008 121.988C71.985 121.988 73.5146 119.908 73.5146 116.233V95.1887C73.5146 94.8672 73.322 94.6376 73.0992 94.6376H71.2989C71.0507 94.6376 70.8736 94.9 70.8736 95.1887V116.233C70.8736 117.828 69.5731 119.463 67.451 118.092L63.5537 115.182C63.4271 115.084 63.3361 114.886 63.3361 114.695V93.3944C63.3361 93.2041 63.4069 92.9802 63.5537 92.8818L77.7977 82.2442C77.9496 82.1457 78.1213 82.1457 78.2428 82.2442L92.4967 92.8818C92.6435 92.9802 92.7143 93.1713 92.7143 93.3944V114.695C92.7143 114.918 92.6182 115.109 92.4967 115.208L78.2428 125.884C78.1162 125.982 77.9192 125.982 77.7977 125.884L74.1576 123.077C74.0613 123.012 73.9076 122.973 73.8114 123.039C72.8035 123.806 72.6018 123.907 71.6649 124.32C71.4167 124.419 71.0794 124.616 71.7935 125.128L76.5217 128.768C76.9927 129.089 77.5086 129.28 78.0252 129.28C78.5671 129.28 79.0937 129.09 79.5089 128.742L93.7529 118.066C94.6898 117.397 95.2564 116.08 95.2564 114.708V93.4072C95.2564 92.0358 94.6645 90.7515 93.7529 90.0493L79.5089 79.3861C79.0658 79.0515 78.5462 78.8863 78.0252 78.8863ZM100.242 88.7164C98.7883 88.7164 97.5117 90.2392 97.5117 92.2538C97.5117 94.2027 98.7376 95.8039 100.242 95.8039C101.746 95.8039 102.972 94.2027 102.972 92.2538C102.972 90.2392 101.721 88.6836 100.242 88.7164ZM100.212 89.2804C101.499 89.2804 102.537 90.5936 102.537 92.2538C102.537 93.8811 101.493 95.2262 100.212 95.2656C98.9511 95.2656 97.9272 93.9139 97.9272 92.2538C97.9272 90.5936 98.9561 89.2804 100.212 89.2804ZM99.2131 90.2416V94.2275H99.7967V92.6383H100.341C100.564 92.6383 100.617 92.7612 100.667 92.9843C100.667 93.0171 100.761 94.05 100.786 94.2403H101.419C101.348 94.05 101.296 93.5046 101.271 93.1765C101.2 92.6647 101.177 92.3122 100.756 92.2794C100.979 92.181 101.35 92.0275 101.35 91.2925C101.35 90.2361 100.641 90.2416 100.271 90.2416H99.2131ZM99.7967 90.8824H100.291C100.443 90.8824 100.736 90.8761 100.736 91.4207C100.736 91.6438 100.662 92.004 100.262 91.9974H99.7967V90.8824ZM81.8434 94.1378C77.7766 94.1378 75.3643 96.3836 75.3643 100.085C75.3643 104.14 77.7806 105.225 81.6752 105.737C86.3346 106.34 86.7002 107.208 86.7002 108.39C86.7002 110.463 85.4155 111.325 82.4072 111.325C78.6341 111.325 77.8041 110.113 77.5306 107.685C77.5053 107.429 77.3281 107.236 77.1053 107.236H75.2555C75.0327 107.236 74.8401 107.466 74.8401 107.787C74.8401 110.884 76.1431 114.593 82.3775 114.593C86.9508 114.586 89.5391 112.29 89.5391 108.261C89.5391 104.272 87.4657 103.211 83.0798 102.443C78.6433 101.675 78.2032 101.289 78.2032 99.9436C78.2032 98.828 78.5666 97.3675 81.8434 97.3675C84.7757 97.3675 85.8687 98.1984 86.3144 100.751C86.365 101.007 86.5026 101.161 86.7002 101.161H88.5499C88.6714 101.161 88.7757 101.099 88.8466 101.007C88.9226 100.883 88.9709 100.755 88.9456 100.597C88.6518 96.1876 86.4065 94.1378 81.8434 94.1378Z" fill="#169976"/>
</svg>
