<svg width="186" height="186" viewBox="0 0 186 186" fill="none" xmlns="http://www.w3.org/2000/svg">
<path d="M149.185 65.6521C147.327 65.0176 145.457 64.4266 143.572 63.8793C143.885 62.6078 144.173 61.3291 144.437 60.0431C148.687 39.3724 145.908 22.7195 136.423 17.2376C127.341 11.9773 112.446 17.4592 97.4211 30.5664C95.9438 31.8597 94.4967 33.1917 93.0799 34.5625C92.1354 33.6519 91.1666 32.7606 90.1737 31.8888C74.4254 17.8734 58.6409 11.97 49.1665 17.4701C40.0845 22.7413 37.3853 38.3951 41.2106 57.9869C41.5933 59.9244 42.0232 61.8534 42.5003 63.774C40.2661 64.4097 38.1082 65.089 36.0448 65.8083C17.6046 72.2566 5.8125 82.3667 5.8125 92.851C5.8125 103.684 18.4692 114.546 37.6977 121.132C39.2574 121.663 40.8316 122.156 42.4203 122.611C41.9045 124.667 41.448 126.746 41.0508 128.849C37.418 148.102 40.2516 163.386 49.3154 168.624C58.6772 174.033 74.3818 168.475 89.6905 155.07C90.9014 154.009 92.1124 152.889 93.3233 151.71C94.854 153.19 96.4282 154.626 98.046 156.018C112.868 168.799 127.504 173.961 136.554 168.708C145.908 163.28 148.949 146.86 145 126.883C144.697 125.357 144.349 123.8 143.954 122.211C145.058 121.884 146.14 121.547 147.198 121.198C167.178 114.561 180.195 103.829 180.195 92.8619C180.188 82.3267 168.018 72.1512 149.185 65.6521ZM102.322 36.1973C115.193 24.9682 127.225 20.5362 132.71 23.704C138.548 27.0789 140.819 40.6874 137.15 58.5354C136.907 59.6979 136.646 60.8568 136.365 62.012C128.684 60.2649 120.895 59.0319 113.049 58.3211C108.558 51.8506 103.634 45.6911 98.3112 39.8846C99.6141 38.6204 100.949 37.3913 102.315 36.1973H102.322ZM57.3004 101.809C58.877 104.861 60.5251 107.875 62.2446 110.852C63.9956 113.889 65.8205 116.881 67.7193 119.828C62.3212 119.241 56.9569 118.377 51.6477 117.238C53.188 112.254 55.0843 107.077 57.3004 101.809ZM57.3004 84.2521C55.1207 79.0972 53.2752 74.0257 51.7603 69.1287C56.7373 68.0134 62.0412 67.1016 67.5703 66.4114C65.7176 69.3031 63.9351 72.2372 62.2228 75.2137C60.5105 78.1902 58.8661 81.203 57.2895 84.2521H57.3004ZM61.2601 93.0326C63.5561 88.2446 66.0288 83.5486 68.6783 78.9446C71.3254 74.343 74.1433 69.8468 77.1319 65.4559C82.3195 65.0636 87.638 64.8565 93.0109 64.8565C98.3838 64.8565 103.735 65.0636 108.919 65.4596C111.876 69.8407 114.677 74.3212 117.322 78.901C119.966 83.4808 122.472 88.155 124.838 92.9236C122.503 97.7286 120.004 102.444 117.34 107.07C114.698 111.671 111.912 116.181 108.984 120.598C103.808 120.962 98.4492 121.161 93 121.161C87.5508 121.161 82.2941 120.991 77.2118 120.66C74.2014 116.255 71.3605 111.739 68.6892 107.113C66.0179 102.488 63.5379 97.794 61.2492 93.0326H61.2601ZM123.788 110.801C125.544 107.754 127.23 104.667 128.845 101.541C131.059 106.562 133.014 111.693 134.701 116.915C129.329 118.124 123.898 119.052 118.43 119.694C120.275 116.766 122.061 113.801 123.788 110.801ZM128.772 84.2557C127.164 81.1921 125.492 78.1647 123.755 75.1737C122.06 72.2239 120.293 69.3104 118.455 66.4332C124.017 67.1379 129.354 68.0752 134.356 69.2195C132.748 74.3219 130.884 79.3403 128.772 84.2557ZM93.0836 45.2212C96.7111 49.1849 100.136 53.3292 103.346 57.6381C96.4802 57.3112 89.6094 57.3112 82.7337 57.6381C86.1231 53.1552 89.5924 48.9957 93.0836 45.2212ZM52.9155 23.9256C58.7498 20.5399 71.65 25.3788 85.2476 37.4651C86.1158 38.2389 86.9913 39.049 87.8632 39.8882C82.5134 45.6939 77.5546 51.848 73.0195 58.3102C65.1917 59.0155 57.4181 60.229 49.7477 61.943C49.3045 60.1605 48.9049 58.3659 48.5489 56.5592C45.2612 39.7647 47.4373 27.1043 52.9155 23.9256ZM44.4111 115.418C42.958 115.004 41.523 114.555 40.1063 114.07C31.6055 111.164 24.5832 107.371 19.7625 103.241C15.4467 99.539 13.2598 95.8444 13.2598 92.851C13.2598 86.4899 22.7269 78.3742 38.5151 72.8705C40.4986 72.1803 42.4991 71.5494 44.5165 70.9778C46.8613 78.5133 49.7011 85.8858 53.0173 93.0472C49.6615 100.308 46.7866 107.781 44.4111 115.418ZM84.7826 149.447C78.0146 155.375 71.2358 159.578 65.2598 161.696C59.8905 163.596 55.6147 163.651 53.0318 162.158C47.5317 158.979 45.243 146.704 48.3636 130.24C48.7342 128.302 49.158 126.365 49.6351 124.427C57.3822 126.096 65.2339 127.236 73.1358 127.839C77.7151 134.334 82.7149 140.523 88.103 146.366C87.0204 147.43 85.9124 148.455 84.7826 149.447ZM93.2906 141.011C89.7595 137.193 86.2357 132.968 82.7991 128.427C86.1388 128.558 89.5391 128.623 93 128.623C96.5529 128.623 100.069 128.547 103.535 128.391C100.337 132.769 96.9176 136.981 93.2906 141.011ZM138.526 151.397C137.487 157.006 135.399 160.748 132.816 162.245C127.319 165.435 115.567 161.29 102.896 150.358C101.443 149.109 99.9895 147.768 98.511 146.362C103.794 140.497 108.677 134.283 113.126 127.762C121.071 127.089 128.961 125.869 136.739 124.111C137.095 125.55 137.41 126.959 137.684 128.34C139.431 137.168 139.682 145.153 138.526 151.397ZM144.848 114.11C143.896 114.426 142.915 114.731 141.919 115.029C139.481 107.458 136.53 100.062 133.088 92.8909C136.401 85.8157 139.236 78.5265 141.574 71.0723C143.358 71.5918 145.091 72.1367 146.758 72.7143C162.895 78.2798 172.74 86.519 172.74 92.851C172.74 99.608 162.107 108.378 144.848 114.11Z" fill="#169976"/>
<path d="M92.5703 108.242C95.662 108.252 98.6871 107.345 101.263 105.634C103.838 103.924 105.848 101.488 107.038 98.6343C108.229 95.7808 108.545 92.6383 107.948 89.6048C107.351 86.5713 105.868 83.7831 103.685 81.5933C101.502 79.4036 98.719 77.9108 95.6874 77.3039C92.6558 76.697 89.5123 77.0034 86.655 78.1842C83.7977 79.365 81.355 81.3672 79.6362 83.9371C77.9175 86.5071 77.0001 89.5293 77 92.621C76.9957 94.6693 77.3952 96.6984 78.1755 98.5923C78.9558 100.486 80.1018 102.208 81.5478 103.658C82.9938 105.109 84.7116 106.261 86.6029 107.047C88.4942 107.834 90.5219 108.24 92.5703 108.242Z" fill="#169976"/>
</svg>
